<mxfile host="app.diagrams.net" modified="2023-08-16T12:48:07.621Z" agent="Mozilla/5.0 (Windows NT 10.0; Win64; x64) AppleWebKit/537.36 (KHTML, like Gecko) Chrome/115.0.0.0 Safari/537.36" etag="odWDgdG77u5B7dVa-Ar3" version="21.6.8" type="github">
  <diagram name="Page-1" id="HJ0a1Q0jAYKRYu7aM5Yh">
    <mxGraphModel dx="1942" dy="1133" grid="1" gridSize="10" guides="1" tooltips="1" connect="1" arrows="1" fold="1" page="1" pageScale="1" pageWidth="1169" pageHeight="827" math="0" shadow="0">
      <root>
        <mxCell id="0" />
        <mxCell id="1" parent="0" />
        <mxCell id="L68TXx4Pk-0FBDnvm4B5-24" value="ECS cluster" style="rounded=0;whiteSpace=wrap;html=1;verticalAlign=top;align=right;fillColor=#f5f5f5;fontColor=#333333;strokeColor=#666666;" vertex="1" parent="1">
          <mxGeometry x="200" y="270" width="480" height="110" as="geometry" />
        </mxCell>
        <mxCell id="L68TXx4Pk-0FBDnvm4B5-1" value="Serverless Mongodb instance" style="shape=cylinder3;whiteSpace=wrap;html=1;boundedLbl=1;backgroundOutline=1;size=15;verticalAlign=bottom;fillColor=#f5f5f5;strokeColor=#666666;fontColor=#333333;" vertex="1" parent="1">
          <mxGeometry x="200" y="520" width="480" height="170" as="geometry" />
        </mxCell>
        <mxCell id="L68TXx4Pk-0FBDnvm4B5-2" value="db: demo" style="rounded=0;whiteSpace=wrap;html=1;fillColor=#fff2cc;strokeColor=#d6b656;" vertex="1" parent="1">
          <mxGeometry x="230" y="590" width="120" height="60" as="geometry" />
        </mxCell>
        <mxCell id="L68TXx4Pk-0FBDnvm4B5-3" value="db: frontier" style="rounded=0;whiteSpace=wrap;html=1;fillColor=#ffe6cc;strokeColor=#d79b00;" vertex="1" parent="1">
          <mxGeometry x="370" y="590" width="120" height="60" as="geometry" />
        </mxCell>
        <mxCell id="L68TXx4Pk-0FBDnvm4B5-4" value="db: larp2" style="rounded=0;whiteSpace=wrap;html=1;fillColor=#d5e8d4;strokeColor=#82b366;" vertex="1" parent="1">
          <mxGeometry x="510" y="590" width="120" height="60" as="geometry" />
        </mxCell>
        <mxCell id="L68TXx4Pk-0FBDnvm4B5-6" style="edgeStyle=orthogonalEdgeStyle;rounded=0;orthogonalLoop=1;jettySize=auto;html=1;exitX=0.5;exitY=1;exitDx=0;exitDy=0;" edge="1" parent="1" source="L68TXx4Pk-0FBDnvm4B5-5" target="L68TXx4Pk-0FBDnvm4B5-2">
          <mxGeometry relative="1" as="geometry" />
        </mxCell>
        <mxCell id="L68TXx4Pk-0FBDnvm4B5-5" value="Demo&lt;br&gt;service" style="rounded=1;whiteSpace=wrap;html=1;fillColor=#fff2cc;strokeColor=#d6b656;" vertex="1" parent="1">
          <mxGeometry x="230" y="300" width="120" height="60" as="geometry" />
        </mxCell>
        <mxCell id="L68TXx4Pk-0FBDnvm4B5-8" style="edgeStyle=orthogonalEdgeStyle;rounded=0;orthogonalLoop=1;jettySize=auto;html=1;exitX=0.5;exitY=1;exitDx=0;exitDy=0;" edge="1" parent="1" source="L68TXx4Pk-0FBDnvm4B5-7" target="L68TXx4Pk-0FBDnvm4B5-3">
          <mxGeometry relative="1" as="geometry" />
        </mxCell>
        <mxCell id="L68TXx4Pk-0FBDnvm4B5-7" value="Frontier&lt;br&gt;service" style="rounded=1;whiteSpace=wrap;html=1;fillColor=#ffe6cc;strokeColor=#d79b00;" vertex="1" parent="1">
          <mxGeometry x="370" y="300" width="120" height="60" as="geometry" />
        </mxCell>
        <mxCell id="L68TXx4Pk-0FBDnvm4B5-10" style="edgeStyle=orthogonalEdgeStyle;rounded=0;orthogonalLoop=1;jettySize=auto;html=1;exitX=0.5;exitY=1;exitDx=0;exitDy=0;entryX=0.5;entryY=0;entryDx=0;entryDy=0;" edge="1" parent="1" source="L68TXx4Pk-0FBDnvm4B5-9" target="L68TXx4Pk-0FBDnvm4B5-4">
          <mxGeometry relative="1" as="geometry" />
        </mxCell>
        <mxCell id="L68TXx4Pk-0FBDnvm4B5-9" value="Larp2&lt;br&gt;service" style="rounded=1;whiteSpace=wrap;html=1;fillColor=#d5e8d4;strokeColor=#82b366;" vertex="1" parent="1">
          <mxGeometry x="510" y="300" width="120" height="60" as="geometry" />
        </mxCell>
        <mxCell id="L68TXx4Pk-0FBDnvm4B5-11" value="" style="endArrow=none;dashed=1;html=1;dashPattern=1 3;strokeWidth=2;rounded=0;" edge="1" parent="1">
          <mxGeometry width="50" height="50" relative="1" as="geometry">
            <mxPoint x="120" y="440" as="sourcePoint" />
            <mxPoint x="680" y="440" as="targetPoint" />
          </mxGeometry>
        </mxCell>
        <mxCell id="L68TXx4Pk-0FBDnvm4B5-12" value="" style="endArrow=none;dashed=1;html=1;dashPattern=1 3;strokeWidth=2;rounded=0;" edge="1" parent="1">
          <mxGeometry width="50" height="50" relative="1" as="geometry">
            <mxPoint x="120" y="200" as="sourcePoint" />
            <mxPoint x="680" y="200" as="targetPoint" />
          </mxGeometry>
        </mxCell>
        <mxCell id="L68TXx4Pk-0FBDnvm4B5-13" value="AWS &lt;br&gt;&lt;br&gt;Public subnet" style="text;html=1;strokeColor=none;fillColor=none;align=center;verticalAlign=middle;whiteSpace=wrap;rounded=0;" vertex="1" parent="1">
          <mxGeometry x="120" y="210" width="60" height="60" as="geometry" />
        </mxCell>
        <mxCell id="L68TXx4Pk-0FBDnvm4B5-14" value="MongoDB&lt;br&gt;&lt;br&gt;Atlas network" style="text;html=1;strokeColor=none;fillColor=none;align=center;verticalAlign=middle;whiteSpace=wrap;rounded=0;" vertex="1" parent="1">
          <mxGeometry x="120" y="480" width="60" height="60" as="geometry" />
        </mxCell>
        <mxCell id="L68TXx4Pk-0FBDnvm4B5-15" value="VPC network link" style="shape=flexArrow;endArrow=classic;startArrow=classic;html=1;rounded=0;" edge="1" parent="1">
          <mxGeometry width="100" height="100" relative="1" as="geometry">
            <mxPoint x="149.76" y="470" as="sourcePoint" />
            <mxPoint x="149.76" y="380" as="targetPoint" />
          </mxGeometry>
        </mxCell>
        <mxCell id="L68TXx4Pk-0FBDnvm4B5-20" style="edgeStyle=orthogonalEdgeStyle;rounded=0;orthogonalLoop=1;jettySize=auto;html=1;exitX=0.5;exitY=1;exitDx=0;exitDy=0;entryX=0.5;entryY=0;entryDx=0;entryDy=0;" edge="1" parent="1" source="L68TXx4Pk-0FBDnvm4B5-17" target="L68TXx4Pk-0FBDnvm4B5-5">
          <mxGeometry relative="1" as="geometry" />
        </mxCell>
        <mxCell id="L68TXx4Pk-0FBDnvm4B5-17" value="Public &lt;br&gt;IP" style="ellipse;whiteSpace=wrap;html=1;aspect=fixed;fillColor=#fff2cc;strokeColor=#d6b656;" vertex="1" parent="1">
          <mxGeometry x="250" y="100" width="80" height="80" as="geometry" />
        </mxCell>
        <mxCell id="L68TXx4Pk-0FBDnvm4B5-21" style="edgeStyle=orthogonalEdgeStyle;rounded=0;orthogonalLoop=1;jettySize=auto;html=1;exitX=0.5;exitY=1;exitDx=0;exitDy=0;entryX=0.5;entryY=0;entryDx=0;entryDy=0;" edge="1" parent="1" source="L68TXx4Pk-0FBDnvm4B5-18" target="L68TXx4Pk-0FBDnvm4B5-7">
          <mxGeometry relative="1" as="geometry" />
        </mxCell>
        <mxCell id="L68TXx4Pk-0FBDnvm4B5-18" value="Public &lt;br&gt;IP" style="ellipse;whiteSpace=wrap;html=1;aspect=fixed;fillColor=#ffe6cc;strokeColor=#d79b00;" vertex="1" parent="1">
          <mxGeometry x="390" y="100" width="80" height="80" as="geometry" />
        </mxCell>
        <mxCell id="L68TXx4Pk-0FBDnvm4B5-22" style="edgeStyle=orthogonalEdgeStyle;rounded=0;orthogonalLoop=1;jettySize=auto;html=1;exitX=0.5;exitY=1;exitDx=0;exitDy=0;entryX=0.5;entryY=0;entryDx=0;entryDy=0;" edge="1" parent="1" source="L68TXx4Pk-0FBDnvm4B5-19" target="L68TXx4Pk-0FBDnvm4B5-9">
          <mxGeometry relative="1" as="geometry" />
        </mxCell>
        <mxCell id="L68TXx4Pk-0FBDnvm4B5-19" value="Public &lt;br&gt;IP" style="ellipse;whiteSpace=wrap;html=1;aspect=fixed;fillColor=#d5e8d4;strokeColor=#82b366;" vertex="1" parent="1">
          <mxGeometry x="530" y="100" width="80" height="80" as="geometry" />
        </mxCell>
      </root>
    </mxGraphModel>
  </diagram>
</mxfile>
